<?xml version="1.0" standalone="no"?>
<!DOCTYPE svg PUBLIC "-//W3C//DTD SVG 20010904//EN"
 "http://www.w3.org/TR/2001/REC-SVG-20010904/DTD/svg10.dtd">
<svg version="1.0" xmlns="http://www.w3.org/2000/svg"
 width="512.000000pt" height="512.000000pt" viewBox="0 0 512.000000 512.000000"
 preserveAspectRatio="xMidYMid meet">

<g transform="translate(0.000000,512.000000) scale(0.100000,-0.100000)"
fill="#000000" stroke="none">
<path d="M400 4881 l0 -159 -109 -4 c-118 -3 -141 -12 -185 -72 -18 -23 -22
-45 -24 -144 -2 -67 1 -132 7 -153 14 -46 69 -96 116 -105 l35 -6 0 -638 0
-638 -35 -6 c-43 -8 -94 -50 -111 -93 -19 -44 -19 -242 0 -286 17 -43 68 -85
111 -93 l35 -6 0 -638 0 -638 -35 -6 c-47 -9 -102 -59 -116 -105 -6 -21 -9
-86 -7 -153 3 -126 11 -147 72 -192 27 -21 39 -21 617 -24 l589 -2 0 -38 c0
-67 29 -173 67 -251 28 -56 58 -97 118 -157 88 -88 153 -130 260 -166 l70 -23
1325 0 1325 0 70 23 c146 48 289 164 363 293 58 103 77 180 77 314 l-1 120
-138 415 c-76 228 -139 419 -140 424 0 5 16 13 37 17 90 20 167 82 214 172 23
44 27 64 27 137 1 78 -2 90 -33 148 -52 97 -138 156 -245 168 l-55 7 -5 41
c-77 591 -206 1024 -448 1508 -115 229 -155 281 -256 330 -59 30 -76 33 -152
33 -76 0 -93 -3 -152 -33 -42 -21 -83 -51 -112 -83 -82 -91 -302 -561 -386
-824 -12 -38 -25 -73 -29 -77 -4 -4 -38 16 -76 45 -74 55 -171 107 -242 129
l-43 13 0 416 0 417 35 6 c47 9 102 59 116 105 6 21 9 86 7 153 -3 126 -11
147 -72 192 -27 21 -38 21 -712 24 l-684 2 -80 160 -80 160 -465 0 -465 0 0
-159z m870 -81 l40 -80 -375 0 -375 0 0 80 0 80 335 0 335 0 40 -80z m1530
-320 l0 -80 -1280 0 -1280 0 0 80 0 80 1280 0 1280 0 0 -80z m-160 -639 l0
-398 -117 -6 c-176 -9 -316 -54 -454 -148 -88 -58 -196 -170 -249 -257 l-45
-72 -687 0 -688 0 0 640 0 640 1120 0 1120 0 0 -399z m1254 229 c25 -9 26 -14
26 -80 l0 -70 -80 0 -80 0 0 70 c0 64 2 72 23 80 30 12 80 12 111 0z m-298
-467 c-2 -2 -29 -3 -59 -1 l-55 3 56 120 57 119 3 -118 c1 -65 1 -121 -2 -123z
m570 70 l33 -73 -59 0 -60 0 0 123 1 122 26 -50 c14 -27 41 -83 59 -122z
m-246 7 l0 -80 -80 0 -80 0 0 80 0 80 80 0 80 0 0 -80z m-320 -320 l0 -80 -80
0 -80 0 0 80 0 80 80 0 80 0 0 -80z m320 0 l0 -80 -80 0 -80 0 0 80 0 80 80 0
80 0 0 -80z m320 0 l0 -80 -80 0 -80 0 0 80 0 80 80 0 80 0 0 -80z m-1503
-106 c87 -21 210 -86 286 -149 38 -31 70 -62 73 -70 3 -7 -11 -84 -31 -171
-19 -88 -48 -246 -63 -351 l-27 -193 -546 0 -547 0 -18 73 c-23 93 -23 249 -1
337 37 144 136 300 245 385 182 144 412 194 629 139z m863 -214 l0 -80 -80 0
-80 0 0 80 0 80 80 0 80 0 0 -80z m320 0 l0 -80 -80 0 -80 0 0 80 0 80 80 0
80 0 0 -80z m320 0 l0 -80 -80 0 -80 0 0 80 0 80 80 0 80 0 0 -80z m-960 -210
l0 -190 -46 0 -46 0 7 43 c10 61 76 337 81 337 2 0 4 -85 4 -190z m1163 43
c20 -82 38 -167 42 -190 l7 -43 -46 0 -46 0 0 190 c0 105 2 190 4 190 2 0 20
-66 39 -147z m-2733 -80 c0 -5 -4 -24 -9 -43 -5 -19 -12 -52 -16 -72 l-6 -38
-719 0 -720 0 0 80 0 80 735 0 c404 0 735 -3 735 -7z m1890 -73 l0 -80 -80 0
-80 0 0 80 0 80 80 0 80 0 0 -80z m320 0 l0 -80 -80 0 -80 0 0 80 0 80 80 0
80 0 0 -80z m320 0 l0 -80 -80 0 -80 0 0 80 0 80 80 0 80 0 0 -80z m-2556
-262 c9 -41 26 -129 26 -132 0 -2 -27 -6 -60 -9 -151 -13 -274 -135 -287 -287
-14 -155 81 -291 233 -336 l52 -15 -80 -239 -80 -240 -544 0 -544 0 0 640 0
640 640 0 640 0 4 -22z m1596 -58 l0 -80 -70 0 c-68 0 -70 1 -66 23 3 12 8 48
11 80 l6 57 60 0 59 0 0 -80z m320 0 l0 -80 -80 0 -80 0 0 80 0 80 80 0 80 0
0 -80z m320 0 l0 -80 -80 0 -80 0 0 80 0 80 80 0 80 0 0 -80z m320 0 l0 -80
-80 0 -80 0 0 80 0 80 80 0 80 0 0 -80z m285 23 c3 -32 8 -68 11 -80 4 -22 2
-23 -66 -23 l-70 0 0 80 0 80 59 0 60 0 6 -57z m265 -285 c48 -25 90 -89 90
-138 0 -49 -42 -113 -90 -137 l-44 -23 -1547 0 -1546 0 -43 23 c-48 25 -90 89
-90 136 0 50 41 114 90 139 l44 22 1546 0 1546 0 44 -22z m-61 -898 l145 -435
0 -95 c-1 -75 -6 -108 -24 -155 -57 -147 -154 -241 -300 -291 -53 -18 -107
-19 -1350 -19 l-1295 0 -65 24 c-79 29 -128 59 -180 111 -92 92 -133 192 -133
330 l-1 95 143 430 c79 237 146 433 148 438 2 4 626 6 1385 5 l1382 -3 145
-435z m-3299 -208 c0 -4 -11 -39 -23 -78 l-24 -69 -571 -3 -572 -2 0 80 0 80
595 0 c327 0 595 -4 595 -8z"/>
<path d="M2240 3020 c0 -30 27 -91 53 -119 148 -160 494 -123 572 61 30 73 26
78 -65 78 -63 0 -82 -3 -87 -15 -11 -31 -84 -59 -153 -59 -69 0 -142 28 -153
59 -5 12 -24 15 -87 15 -74 0 -80 -2 -80 -20z"/>
<path d="M1917 1466 l-25 -75 76 -25 c41 -14 76 -25 77 -23 6 7 45 133 45 143
0 11 -108 54 -136 54 -7 0 -23 -33 -37 -74z"/>
<path d="M1817 1165 c-14 -41 -22 -76 -19 -79 16 -8 144 -48 146 -45 6 7 46
133 46 144 0 9 -119 55 -142 55 -4 0 -18 -34 -31 -75z"/>
<path d="M4555 958 c-33 -11 -61 -22 -62 -23 -2 -1 13 -50 33 -109 41 -121 40
-155 -3 -207 -46 -54 -70 -59 -308 -59 l-215 0 0 -80 0 -80 228 0 c287 0 309
5 398 94 104 104 118 193 58 376 -39 124 -34 120 -129 88z"/>
<path d="M1735 927 c-22 -59 -45 -132 -45 -142 0 -9 82 -31 147 -39 8 -1 51
108 52 131 1 17 -149 65 -154 50z"/>
<path d="M3360 480 l0 -80 80 0 80 0 0 80 0 80 -80 0 -80 0 0 -80z"/>
<path d="M3680 480 l0 -80 80 0 80 0 0 80 0 80 -80 0 -80 0 0 -80z"/>
</g>
</svg>
