<?xml version="1.0" standalone="no"?>
<!DOCTYPE svg PUBLIC "-//W3C//DTD SVG 20010904//EN"
 "http://www.w3.org/TR/2001/REC-SVG-20010904/DTD/svg10.dtd">
<svg version="1.0" xmlns="http://www.w3.org/2000/svg"
 width="512.000000pt" height="512.000000pt" viewBox="0 0 512.000000 512.000000"
 preserveAspectRatio="xMidYMid meet">

<g transform="translate(0.000000,512.000000) scale(0.100000,-0.100000)"
fill="#000000" stroke="none">
<path d="M4445 4957 c-330 -55 -602 -102 -605 -104 -2 -2 70 -78 160 -168
l165 -165 -403 -403 -402 -402 -240 240 -240 240 -1018 -1018 -1017 -1017
-279 0 c-190 0 -292 -4 -320 -12 -55 -16 -138 -99 -154 -154 -17 -59 -17
-1369 0 -1428 16 -55 99 -138 154 -154 32 -9 375 -12 1458 -12 l1416 0 0 -56
c0 -31 5 -75 12 -98 16 -55 99 -138 154 -154 59 -17 1369 -17 1428 0 55 16
138 99 154 154 14 48 16 262 3 297 -9 22 -6 26 31 43 50 22 111 91 126 142 15
51 15 253 0 304 -15 51 -76 120 -126 142 -37 17 -40 21 -31 43 13 35 11 249
-3 297 -16 55 -99 138 -154 154 -24 7 -100 12 -178 12 l-136 0 0 1183 0 1183
60 59 60 60 165 -165 c90 -90 166 -162 168 -160 8 10 204 1211 198 1214 -3 1
-276 -42 -606 -97z m412 -124 c-3 -16 -29 -171 -58 -346 l-52 -318 -114 113
-113 113 -580 -580 -580 -580 -240 240 -240 240 -778 -778 -778 -778 -122 3
-122 3 900 900 900 900 240 -240 240 -240 517 517 518 518 -113 113 -113 114
328 55 c180 31 336 56 347 57 15 1 18 -4 13 -26z m-617 -2053 l0 -1100 -80 0
-80 0 0 1022 0 1023 77 77 c43 43 79 78 80 78 2 0 3 -495 3 -1100z m-320 -160
l0 -940 -80 0 -80 0 0 862 0 863 77 77 c43 43 79 78 80 78 2 0 3 -423 3 -940z
m-998 823 l38 -37 0 -623 0 -623 -80 0 -80 0 0 622 0 622 37 38 c20 21 39 38
42 38 3 0 22 -17 43 -37z m-282 -743 l0 -540 -80 0 -80 0 0 462 0 463 77 77
c43 43 79 78 80 78 2 0 3 -243 3 -540z m640 -77 l0 -463 -80 0 -80 0 0 542 0
543 80 -80 80 -80 0 -462z m318 -467 c-2 -1 -38 0 -80 2 l-78 4 0 461 0 462
78 78 77 77 3 -541 c1 -298 1 -543 0 -543z m-1278 384 l0 -380 -80 0 -80 0 0
302 0 303 77 77 c43 43 79 78 80 78 2 0 3 -171 3 -380z m-320 -160 l0 -220
-222 0 -223 0 220 220 c121 121 221 220 222 220 2 0 3 -99 3 -220z m-647 -429
c-136 -112 -233 -265 -285 -448 -32 -112 -32 -334 0 -446 52 -183 149 -336
285 -448 l58 -49 -550 0 c-382 0 -558 3 -574 11 -14 6 -30 22 -36 36 -16 34
-16 1312 0 1347 6 13 21 29 33 34 14 7 215 11 574 11 l553 1 -58 -49z m705 33
c292 -60 506 -274 566 -566 58 -280 -65 -574 -306 -734 -335 -223 -777 -132
-1001 207 -70 104 -117 262 -117 389 0 137 53 300 133 412 167 234 451 349
725 292z m1495 5 c39 -18 47 -50 47 -184 l0 -123 -157 -4 c-173 -4 -189 -8
-251 -69 -59 -58 -66 -81 -70 -224 -2 -80 1 -148 8 -174 13 -48 74 -121 122
-144 l31 -15 0 -172 0 -172 -32 -16 c-36 -17 -111 -97 -111 -118 0 -12 -63
-14 -356 -14 l-355 0 58 49 c136 112 233 265 285 448 32 112 32 334 0 446 -52
183 -149 336 -285 448 l-58 49 550 0 c382 0 558 -3 574 -11z m-113 -549 l0
-80 80 0 80 0 0 80 0 80 80 0 80 0 0 -80 0 -80 80 0 80 0 0 80 0 80 80 0 80 0
0 -80 0 -80 80 0 80 0 0 80 0 80 80 0 80 0 0 -80 0 -80 80 0 80 0 0 80 0 80
45 0 c55 0 90 -15 104 -47 6 -13 11 -64 11 -113 0 -99 -10 -132 -47 -149 -34
-16 -1312 -16 -1346 0 -37 17 -47 50 -47 149 0 132 18 158 113 159 l47 1 0
-80z m160 -480 l0 -80 80 0 80 0 0 80 0 80 80 0 80 0 0 -80 0 -80 80 0 80 0 0
80 0 80 80 0 80 0 0 -80 0 -80 80 0 80 0 0 80 0 80 80 0 80 0 0 -80 0 -80 80
0 80 0 0 80 0 80 45 0 c55 0 90 -15 104 -47 6 -13 11 -64 11 -113 0 -99 -10
-132 -47 -149 -34 -16 -1312 -16 -1346 0 -37 17 -47 50 -47 149 0 132 18 158
113 159 l47 1 0 -80z m-160 -480 l0 -80 80 0 80 0 0 80 0 80 80 0 80 0 0 -80
0 -80 80 0 80 0 0 80 0 80 80 0 80 0 0 -80 0 -80 80 0 80 0 0 80 0 80 80 0 80
0 0 -80 0 -80 80 0 80 0 0 80 0 80 45 0 c55 0 90 -15 104 -47 6 -13 11 -64 11
-113 0 -99 -10 -132 -47 -149 -34 -16 -1312 -16 -1346 0 -37 17 -47 50 -47
149 0 132 18 158 113 159 l47 1 0 -80z"/>
<path d="M624 1826 c-119 -38 -224 -170 -224 -283 0 -22 3 -23 78 -23 l79 0
12 42 c16 53 56 93 109 109 l42 12 0 79 0 78 -27 -1 c-16 0 -46 -6 -69 -13z"/>
<path d="M404 993 c18 -134 135 -251 269 -269 l47 -7 0 80 0 80 -42 12 c-53
16 -93 56 -109 109 l-12 42 -80 0 -80 0 7 -47z"/>
<path d="M1840 1755 l0 -85 -39 -20 c-107 -54 -149 -184 -97 -296 28 -61 60
-86 184 -148 105 -53 127 -79 101 -124 -32 -57 -112 -54 -139 5 -15 33 -15 33
-92 33 -73 0 -78 -1 -78 -21 0 -71 54 -155 121 -189 l39 -20 0 -85 0 -85 80 0
80 0 0 85 0 85 39 20 c107 54 149 184 97 296 -28 61 -60 86 -184 148 -105 53
-127 79 -101 124 32 57 112 54 139 -5 15 -33 15 -33 93 -33 72 0 77 1 77 21 0
71 -54 155 -121 189 l-39 20 0 85 0 85 -80 0 -80 0 0 -85z"/>
<path d="M400 4800 l0 -240 720 0 720 0 0 240 0 240 -720 0 -720 0 0 -240z
m1280 0 l0 -80 -560 0 -560 0 0 80 0 80 560 0 560 0 0 -80z"/>
<path d="M400 4320 l0 -80 720 0 720 0 0 80 0 80 -720 0 -720 0 0 -80z"/>
<path d="M400 4000 l0 -80 720 0 720 0 0 80 0 80 -720 0 -720 0 0 -80z"/>
<path d="M400 3680 l0 -80 80 0 80 0 0 80 0 80 -80 0 -80 0 0 -80z"/>
<path d="M720 3680 l0 -80 80 0 80 0 0 80 0 80 -80 0 -80 0 0 -80z"/>
<path d="M1040 3680 l0 -80 400 0 400 0 0 80 0 80 -400 0 -400 0 0 -80z"/>
<path d="M400 3360 l0 -80 720 0 720 0 0 80 0 80 -720 0 -720 0 0 -80z"/>
</g>
</svg>
