<?xml version="1.0" standalone="no"?>
<!DOCTYPE svg PUBLIC "-//W3C//DTD SVG 20010904//EN"
 "http://www.w3.org/TR/2001/REC-SVG-20010904/DTD/svg10.dtd">
<svg version="1.0" xmlns="http://www.w3.org/2000/svg"
 width="512.000000pt" height="512.000000pt" viewBox="0 0 512.000000 512.000000"
 preserveAspectRatio="xMidYMid meet">

<g transform="translate(0.000000,512.000000) scale(0.100000,-0.100000)"
fill="#000000" stroke="none">
<path d="M1170 4934 c-133 -24 -253 -63 -375 -123 -802 -392 -1043 -1396 -505
-2109 209 -278 560 -488 895 -534 44 -6 84 -15 88 -18 5 -4 -3 -36 -17 -70
-71 -175 -100 -351 -93 -559 8 -216 46 -376 132 -556 135 -280 366 -514 645
-655 91 -46 284 -107 393 -125 180 -29 426 -16 602 32 126 35 332 130 414 192
l23 18 -43 66 c-24 37 -47 67 -52 67 -5 0 -27 -13 -50 -29 -68 -46 -196 -107
-287 -136 -255 -80 -548 -76 -792 11 -495 178 -820 640 -820 1164 0 465 247
873 662 1094 286 152 650 180 965 75 353 -118 641 -402 769 -757 86 -240 92
-527 15 -779 -31 -103 -121 -279 -183 -361 -31 -41 -54 -78 -51 -83 3 -4 32
-29 65 -54 l59 -46 54 73 c117 157 206 352 248 541 30 134 37 373 15 503 -20
118 -47 218 -82 304 -28 70 -24 79 31 80 48 1 192 36 290 70 107 38 185 77
278 137 l69 44 -26 34 c-14 18 -26 37 -26 42 0 4 -10 20 -23 35 l-22 27 -65
-41 c-167 -104 -350 -166 -541 -184 l-75 -6 -67 90 c-71 95 -199 220 -308 299
-170 125 -388 214 -616 254 -40 7 -73 14 -73 15 0 2 11 33 24 68 83 221 114
478 82 692 -19 129 -51 242 -102 367 l-37 87 49 72 c113 165 324 337 517 420
495 215 1078 83 1424 -321 200 -235 303 -511 303 -816 0 -248 -102 -546 -250
-734 -22 -28 -41 -54 -42 -60 -2 -5 26 -32 61 -60 l65 -50 47 61 c428 554 372
1349 -132 1846 -111 109 -228 191 -374 263 -201 98 -380 139 -610 139 -287 0
-544 -78 -782 -236 -99 -66 -258 -215 -323 -303 -25 -33 -47 -60 -50 -60 -3 0
-27 29 -55 65 -61 80 -186 201 -280 272 -38 29 -128 81 -200 117 -135 67 -251
105 -394 130 -104 19 -358 18 -461 -1z m483 -175 c461 -92 833 -449 951 -914
28 -111 41 -273 30 -381 -9 -82 -17 -112 -48 -174 -44 -88 -120 -203 -184
-277 -40 -46 -52 -54 -101 -63 -89 -18 -245 -68 -327 -105 -94 -43 -249 -144
-329 -214 -33 -29 -70 -57 -83 -62 -37 -14 -268 -10 -370 6 -185 30 -382 110
-542 218 -98 67 -271 242 -337 340 -29 43 -72 117 -95 164 -42 84 -42 86 -46
213 -14 451 208 862 593 1096 265 162 575 215 888 153z"/>
<path d="M907 4297 c-31 -29 -57 -55 -57 -59 0 -3 106 -129 235 -280 l234
-273 1 -107 0 -108 -85 0 -85 0 0 -85 0 -85 85 0 85 0 0 -80 0 -80 -85 0 -85
0 0 -85 0 -85 85 0 85 0 0 -40 0 -40 85 0 85 0 0 40 0 40 80 0 80 0 0 85 0 85
-80 0 -80 0 0 80 0 80 80 0 80 0 0 85 0 85 -80 0 -80 0 0 108 0 109 235 274
c129 151 234 277 232 281 -1 4 -29 30 -62 58 -57 48 -61 50 -75 32 -8 -10
-105 -122 -214 -250 -178 -208 -201 -231 -215 -218 -9 8 -106 120 -216 250
-110 129 -202 235 -205 235 -3 0 -31 -23 -63 -52z"/>
<path d="M3653 4290 c-115 -17 -239 -103 -298 -208 -33 -58 -55 -149 -55 -224
l0 -58 -80 0 -80 0 0 -85 0 -85 80 0 80 0 0 -80 0 -80 -80 0 -80 0 0 -85 0
-85 80 0 80 0 0 -49 c0 -168 81 -315 215 -390 74 -41 133 -54 228 -49 135 7
251 75 324 191 30 48 63 145 63 188 l0 29 -85 0 c-76 0 -85 -2 -85 -18 0 -40
-33 -112 -67 -147 -49 -51 -105 -75 -176 -75 -140 0 -235 96 -245 248 l-5 72
87 0 86 0 0 85 0 85 -85 0 -85 0 0 80 0 79 83 3 82 3 3 83 3 82 -86 0 -85 0 0
53 c0 138 76 240 198 266 132 28 268 -65 288 -195 l6 -44 84 0 84 0 0 29 c0
49 -37 152 -75 206 -89 130 -244 197 -402 175z"/>
<path d="M2480 2231 l0 -78 -84 -5 c-102 -7 -172 -36 -233 -97 -131 -132 -129
-346 4 -472 85 -81 161 -99 426 -99 197 0 217 -5 261 -63 54 -70 37 -176 -35
-228 -34 -24 -37 -24 -260 -24 l-226 0 -36 28 c-24 18 -42 44 -54 77 l-18 50
-83 0 -84 0 7 -32 c16 -78 27 -107 55 -150 61 -93 168 -147 288 -148 l72 0 0
-85 0 -85 80 0 80 0 0 85 0 85 73 0 c119 1 226 55 287 148 89 135 68 312 -51
424 -83 78 -124 88 -357 88 -113 0 -214 5 -237 11 -59 17 -112 74 -120 132
-10 68 24 133 85 165 41 21 57 22 240 22 168 0 201 -3 236 -19 44 -20 80 -68
90 -120 l7 -31 78 0 c43 0 80 3 83 8 2 4 0 30 -5 57 -30 160 -151 262 -325
273 l-84 5 0 78 0 79 -80 0 -80 0 0 -79z"/>
</g>
</svg>
